# Blender v2.82 (sub 7) OBJ File: 'test-colliders.blend'
# www.blender.org
o col1_Cube.002
v -30.000000 -1.000000 73.222694
v -30.000000 1.000000 73.222694
v -30.000000 -1.000000 -30.000000
v -30.000000 1.000000 -30.000000
v 30.000000 -1.000000 73.222694
v 30.000000 1.000000 73.222694
v 30.000000 -1.000000 -30.000000
v 30.000000 1.000000 -30.000000
vn -1.0000 0.0000 0.0000
vn 0.0000 0.0000 -1.0000
vn 1.0000 0.0000 0.0000
vn 0.0000 0.0000 1.0000
vn 0.0000 -1.0000 0.0000
vn 0.0000 1.0000 0.0000
s off
f 2//1 3//1 1//1
f 4//2 7//2 3//2
f 8//3 5//3 7//3
f 6//4 1//4 5//4
f 7//5 1//5 3//5
f 4//6 6//6 8//6
f 2//1 4//1 3//1
f 4//2 8//2 7//2
f 8//3 6//3 5//3
f 6//4 2//4 1//4
f 7//5 5//5 1//5
f 4//6 2//6 6//6
o col1b_Cube.003
v 42.000000 -73.000000 30.000000
v 42.000000 1.000000 30.000000
v 42.000000 -73.000000 -30.000000
v 42.000000 1.000000 -30.000000
v 102.000000 -73.000000 30.000000
v 102.000000 1.000000 30.000000
v 102.000000 -73.000000 -30.000000
v 102.000000 1.000000 -30.000000
vn -1.0000 0.0000 0.0000
vn 0.0000 0.0000 -1.0000
vn 1.0000 0.0000 0.0000
vn 0.0000 0.0000 1.0000
vn 0.0000 -1.0000 0.0000
vn 0.0000 1.0000 0.0000
s off
f 10//7 11//7 9//7
f 12//8 15//8 11//8
f 16//9 13//9 15//9
f 14//10 9//10 13//10
f 15//11 9//11 11//11
f 12//12 14//12 16//12
f 10//7 12//7 11//7
f 12//8 16//8 15//8
f 16//9 14//9 13//9
f 14//10 10//10 9//10
f 15//11 13//11 9//11
f 12//12 10//12 14//12
o colpillar_Cube.004
v -21.017611 1.000000 7.451618
v -21.017611 9.000000 7.451618
v -21.017611 1.000000 5.451618
v -21.017611 9.000000 5.451618
v -19.017611 1.000000 7.451618
v -19.017611 9.000000 7.451618
v -19.017611 1.000000 5.451618
v -19.017611 9.000000 5.451618
vn -1.0000 0.0000 0.0000
vn 0.0000 0.0000 -1.0000
vn 1.0000 0.0000 0.0000
vn 0.0000 0.0000 1.0000
vn 0.0000 -1.0000 0.0000
vn 0.0000 1.0000 0.0000
s off
f 18//13 19//13 17//13
f 20//14 23//14 19//14
f 24//15 21//15 23//15
f 22//16 17//16 21//16
f 23//17 17//17 19//17
f 20//18 22//18 24//18
f 18//13 20//13 19//13
f 20//14 24//14 23//14
f 24//15 22//15 21//15
f 22//16 18//16 17//16
f 23//17 21//17 17//17
f 20//18 18//18 22//18
o colpillar.001_Cube.005
v -26.017611 1.000000 0.451618
v -26.017611 9.000000 0.451618
v -26.017611 1.000000 -3.548382
v -26.017611 9.000000 -3.548382
v -22.017611 1.000000 0.451618
v -22.017611 9.000000 0.451618
v -22.017611 1.000000 -3.548382
v -22.017611 9.000000 -3.548382
vn -1.0000 0.0000 0.0000
vn 0.0000 0.0000 -1.0000
vn 1.0000 0.0000 0.0000
vn 0.0000 0.0000 1.0000
vn 0.0000 -1.0000 0.0000
vn 0.0000 1.0000 0.0000
s off
f 26//19 27//19 25//19
f 28//20 31//20 27//20
f 32//21 29//21 31//21
f 30//22 25//22 29//22
f 31//23 25//23 27//23
f 28//24 30//24 32//24
f 26//19 28//19 27//19
f 28//20 32//20 31//20
f 32//21 30//21 29//21
f 30//22 26//22 25//22
f 31//23 29//23 25//23
f 28//24 26//24 30//24
o colpillar.002_Cube.006
v -28.017611 1.000000 -9.662846
v -28.017611 12.200000 -9.662846
v -28.017611 1.000000 -17.662846
v -28.017611 12.200000 -17.662846
v -20.017611 1.000000 -9.662846
v -20.017611 12.200000 -9.662846
v -20.017611 1.000000 -17.662846
v -20.017611 12.200000 -17.662846
vn -1.0000 0.0000 0.0000
vn 0.0000 0.0000 -1.0000
vn 1.0000 0.0000 0.0000
vn 0.0000 0.0000 1.0000
vn 0.0000 -1.0000 0.0000
vn 0.0000 1.0000 0.0000
s off
f 34//25 35//25 33//25
f 36//26 39//26 35//26
f 40//27 37//27 39//27
f 38//28 33//28 37//28
f 39//29 33//29 35//29
f 36//30 38//30 40//30
f 34//25 36//25 35//25
f 36//26 40//26 39//26
f 40//27 38//27 37//27
f 38//28 34//28 33//28
f 39//29 37//29 33//29
f 36//30 34//30 38//30
o colpillar.003_Cube.007
v -14.519882 0.400770 -19.458698
v -14.519882 9.981512 -25.259504
v -14.519882 -3.742663 -26.302086
v -14.519882 5.838080 -32.102890
v -6.519882 0.400770 -19.458698
v -6.519882 9.981512 -25.259504
v -6.519882 -3.742663 -26.302086
v -6.519882 5.838080 -32.102890
vn -1.0000 0.0000 0.0000
vn 0.0000 -0.5179 -0.8554
vn 1.0000 0.0000 0.0000
vn 0.0000 0.5179 0.8554
vn 0.0000 -0.8554 0.5179
vn 0.0000 0.8554 -0.5179
s off
f 42//31 43//31 41//31
f 44//32 47//32 43//32
f 48//33 45//33 47//33
f 46//34 41//34 45//34
f 47//35 41//35 43//35
f 44//36 46//36 48//36
f 42//31 44//31 43//31
f 44//32 48//32 47//32
f 48//33 46//33 45//33
f 46//34 42//34 41//34
f 47//35 45//35 41//35
f 44//36 42//36 46//36
o colpillar.004_Cube.008
v 1.792742 0.400770 -13.136600
v 1.792742 9.981514 -24.738214
v 1.792742 -3.742664 -26.823376
v 1.792742 5.838079 -38.424992
v 9.792742 0.400770 -13.136600
v 9.792742 9.981514 -24.738214
v 9.792742 -3.742664 -26.823376
v 9.792742 5.838079 -38.424992
vn -1.0000 0.0000 0.0000
vn 0.0000 -0.7711 -0.6368
vn 1.0000 0.0000 0.0000
vn 0.0000 0.7711 0.6368
vn 0.0000 -0.9571 0.2897
vn 0.0000 0.9571 -0.2897
s off
f 50//37 51//37 49//37
f 52//38 55//38 51//38
f 55//39 54//39 53//39
f 54//40 49//40 53//40
f 55//41 49//41 51//41
f 52//42 54//42 56//42
f 50//37 52//37 51//37
f 52//38 56//38 55//38
f 55//39 56//39 54//39
f 54//40 50//40 49//40
f 55//41 53//41 49//41
f 52//42 50//42 54//42
o col1b.001_Cube.009
v -45.007145 -73.000000 -72.232498
v -45.007145 1.000000 -72.232498
v -14.026065 -73.000000 -123.615112
v -14.026065 1.000000 -123.615112
v 6.375472 -73.000000 -41.251419
v 6.375472 1.000000 -41.251419
v 37.356548 -73.000000 -92.634033
v 37.356548 1.000000 -92.634033
vn -0.8564 0.0000 -0.5164
vn 0.5164 0.0000 -0.8564
vn 0.8564 0.0000 0.5164
vn -0.5164 0.0000 0.8564
vn 0.0000 -1.0000 -0.0000
vn 0.0000 1.0000 0.0000
s off
f 58//43 59//43 57//43
f 60//44 63//44 59//44
f 64//45 61//45 63//45
f 62//46 57//46 61//46
f 63//47 57//47 59//47
f 60//48 62//48 64//48
f 58//43 60//43 59//43
f 60//44 64//44 63//44
f 64//45 62//45 61//45
f 62//46 58//46 57//46
f 63//47 61//47 57//47
f 60//48 58//48 62//48
o colpillar.006_Cube.011
v -17.189331 0.999999 -87.786804
v -17.189331 8.999999 -87.786804
v -20.537838 0.999999 -92.765511
v -20.537838 8.999999 -92.765511
v -12.210626 0.999999 -91.135307
v -12.210626 8.999999 -91.135307
v -15.559133 0.999999 -96.114014
v -15.559133 8.999999 -96.114014
vn -0.8298 0.0000 0.5581
vn -0.5581 0.0000 -0.8298
vn 0.8298 0.0000 -0.5581
vn 0.5581 0.0000 0.8298
vn 0.0000 -1.0000 0.0000
vn 0.0000 1.0000 0.0000
s off
f 66//49 67//49 65//49
f 68//50 71//50 67//50
f 72//51 69//51 71//51
f 70//52 65//52 69//52
f 71//53 65//53 67//53
f 68//54 70//54 72//54
f 66//49 68//49 67//49
f 68//50 72//50 71//50
f 72//51 70//51 69//51
f 70//52 66//52 65//52
f 71//53 69//53 65//53
f 68//54 66//54 70//54
o colpillar.007_Cube.012
v 0.811394 -3.000001 -94.114868
v 0.811394 12.999999 -94.114868
v 1.380866 -3.000001 -102.094574
v 1.380866 12.999999 -102.094574
v 8.791100 -3.000001 -93.545395
v 8.791100 12.999999 -93.545395
v 9.360571 -3.000001 -101.525101
v 9.360571 12.999999 -101.525101
vn -0.9975 0.0000 -0.0712
vn 0.0712 0.0000 -0.9975
vn 0.9975 0.0000 0.0712
vn -0.0712 0.0000 0.9975
vn 0.0000 -1.0000 -0.0000
vn 0.0000 1.0000 -0.0000
s off
f 74//55 75//55 73//55
f 76//56 79//56 75//56
f 80//57 77//57 79//57
f 78//58 73//58 77//58
f 79//59 73//59 75//59
f 76//60 78//60 80//60
f 74//55 76//55 75//55
f 76//56 80//56 79//56
f 80//57 78//57 77//57
f 78//58 74//58 73//58
f 79//59 77//59 73//59
f 76//60 74//60 78//60
o colpillar.008_Cube.013
v -4.252572 0.999999 -104.813271
v -4.252572 8.999999 -104.813271
v -4.252572 0.999999 -108.813271
v -4.252572 8.999999 -108.813271
v -0.252572 0.999999 -104.813271
v -0.252572 8.999999 -104.813271
v -0.252572 0.999999 -108.813271
v -0.252572 8.999999 -108.813271
vn -1.0000 0.0000 0.0000
vn 0.0000 0.0000 -1.0000
vn 1.0000 0.0000 0.0000
vn 0.0000 0.0000 1.0000
vn 0.0000 -1.0000 0.0000
vn 0.0000 1.0000 0.0000
s off
f 82//61 83//61 81//61
f 84//62 87//62 83//62
f 88//63 85//63 87//63
f 86//64 81//64 85//64
f 87//65 81//65 83//65
f 84//66 86//66 88//66
f 82//61 84//61 83//61
f 84//62 88//62 87//62
f 88//63 86//63 85//63
f 86//64 82//64 81//64
f 87//65 85//65 81//65
f 84//66 82//66 86//66
o colpillar.009_Cube.014
v 71.964294 0.999996 0.965439
v 71.964294 12.199996 0.965439
v 71.964294 0.999996 -23.034561
v 71.964294 12.199996 -23.034561
v 79.964294 0.999996 0.965439
v 79.964294 12.199996 0.965439
v 79.964294 0.999996 -23.034561
v 79.964294 12.199996 -23.034561
vn -1.0000 0.0000 0.0000
vn 0.0000 0.0000 -1.0000
vn 1.0000 0.0000 0.0000
vn 0.0000 0.0000 1.0000
vn 0.0000 -1.0000 0.0000
vn 0.0000 1.0000 0.0000
s off
f 90//67 91//67 89//67
f 92//68 95//68 91//68
f 96//69 93//69 95//69
f 94//70 89//70 93//70
f 95//71 89//71 91//71
f 92//72 94//72 96//72
f 90//67 92//67 91//67
f 92//68 96//68 95//68
f 96//69 94//69 93//69
f 94//70 90//70 89//70
f 95//71 93//71 89//71
f 92//72 90//72 94//72
o colpillar.010_Cube.015
v 79.513863 0.389269 22.796825
v 79.513863 11.589269 22.796825
v 72.026085 0.389269 -0.005219
v 72.026085 11.589269 -0.005219
v 86.389320 0.389269 20.539047
v 86.389320 11.589269 20.539047
v 78.901543 0.389269 -2.262998
v 78.901543 11.589269 -2.262998
vn -0.9501 0.0000 0.3120
vn -0.3120 0.0000 -0.9501
vn 0.9501 0.0000 -0.3120
vn 0.3120 0.0000 0.9501
vn 0.0000 -1.0000 0.0000
vn 0.0000 1.0000 0.0000
s off
f 98//73 99//73 97//73
f 100//74 103//74 99//74
f 104//75 101//75 103//75
f 102//76 97//76 101//76
f 103//77 97//77 99//77
f 100//78 102//78 104//78
f 98//73 100//73 99//73
f 100//74 104//74 103//74
f 104//75 102//75 101//75
f 102//76 98//76 97//76
f 103//77 101//77 97//77
f 100//78 98//78 102//78
o colpillar.011_Cube.016
v 58.861778 -8.532762 -75.021881
v 58.861778 2.667238 -75.021881
v 77.381721 -8.532762 -59.757160
v 77.381721 2.667238 -59.757160
v 53.773537 -8.532762 -68.848572
v 53.773537 2.667238 -68.848572
v 72.293480 -8.532762 -53.583847
v 72.293480 2.667238 -53.583847
vn 0.6360 0.0000 -0.7717
vn 0.7717 0.0000 0.6360
vn -0.6360 0.0000 0.7717
vn -0.7717 0.0000 -0.6360
vn 0.0000 -1.0000 0.0000
vn 0.0000 1.0000 0.0000
s off
f 106//79 107//79 105//79
f 108//80 111//80 107//80
f 112//81 109//81 111//81
f 110//82 105//82 109//82
f 111//83 105//83 107//83
f 108//84 110//84 112//84
f 106//79 108//79 107//79
f 108//80 112//80 111//80
f 112//81 110//81 109//81
f 110//82 106//82 105//82
f 111//83 109//83 105//83
f 108//84 106//84 110//84
o colpillar.012_Cube.017
v 37.644524 -4.211461 -83.055374
v 40.452137 6.607690 -82.345970
v 59.156395 -10.363224 -74.372337
v 61.964012 0.455926 -73.662933
v 34.997879 -3.965983 -76.324501
v 37.805496 6.853168 -75.615097
v 56.509750 -10.117746 -67.641464
v 59.317368 0.701404 -66.932068
vn 0.3657 -0.0339 -0.9301
vn 0.8963 -0.2563 0.3618
vn -0.3657 0.0339 0.9301
vn -0.8963 0.2563 -0.3618
vn -0.2507 -0.9660 -0.0633
vn 0.2507 0.9660 0.0633
s off
f 114//85 115//85 113//85
f 116//86 119//86 115//86
f 120//87 117//87 119//87
f 118//88 113//88 117//88
f 119//89 113//89 115//89
f 116//90 118//90 120//90
f 114//85 116//85 115//85
f 116//86 120//86 119//86
f 120//87 118//87 117//87
f 118//88 114//88 113//88
f 119//89 117//89 113//89
f 116//90 114//90 118//90
o colpillar.013_Cube.018
v 76.767975 -10.881870 -59.528931
v 76.767975 0.318130 -59.528931
v 72.698143 -10.881870 -26.546579
v 72.698143 0.318130 -26.546579
v 69.585762 -10.881870 -60.415169
v 69.585762 0.318130 -60.415169
v 65.515938 -10.881870 -27.432821
v 65.515938 0.318130 -27.432821
vn 0.9925 0.0000 0.1225
vn -0.1225 0.0000 0.9925
vn -0.9925 0.0000 -0.1225
vn 0.1225 0.0000 -0.9925
vn 0.0000 -1.0000 0.0000
vn 0.0000 1.0000 0.0000
s off
f 122//91 123//91 121//91
f 124//92 127//92 123//92
f 128//93 125//93 127//93
f 126//94 121//94 125//94
f 127//95 121//95 123//95
f 124//96 126//96 128//96
f 122//91 124//91 123//91
f 124//92 128//92 127//92
f 128//93 126//93 125//93
f 126//94 122//94 121//94
f 127//95 125//95 121//95
f 124//96 122//96 126//96
o col-convex_Cube.019
v 17.652277 1.000000 18.598129
v 17.652277 12.200000 14.598129
v 17.652277 1.000000 10.598129
v 17.652277 12.200000 10.598129
v 25.652277 1.000000 18.598129
v 25.652277 12.200000 21.215591
v 25.652277 1.000000 10.598129
v 25.652277 12.200000 10.598129
v 17.652277 1.000000 14.598129
v 17.652277 6.600000 10.598129
v 21.652277 1.000000 10.598129
v 21.652277 12.200000 10.598129
v 25.652277 6.600000 10.598129
v 25.652277 1.000000 14.598129
v 25.652277 12.200000 14.598129
v 21.652277 1.000000 18.598129
v 21.652277 12.200000 14.598129
v 21.652277 1.000000 14.598129
v 21.652277 6.600000 10.598129
vn 0.0000 0.0000 -1.0000
vn 0.0000 -1.0000 0.0000
vn 0.0000 1.0000 0.0000
vn 0.0000 -0.2276 0.9738
vn 1.0000 0.0000 0.0000
vn -1.0000 0.0000 0.0000
vn -0.6145 0.2653 0.7429
s off
f 140//97 141//97 147//97
f 142//98 144//98 146//98
f 130//99 134//99 145//99
f 145//99 134//99 143//99
f 140//99 143//99 136//99
f 132//99 145//99 140//99
f 146//98 129//98 137//98
f 139//98 137//98 131//98
f 135//98 146//98 139//98
f 134//100 144//100 133//100
f 143//101 133//101 142//101
f 141//101 142//101 135//101
f 136//101 143//101 141//101
f 147//97 135//97 139//97
f 138//97 139//97 131//97
f 132//97 147//97 138//97
f 130//102 131//102 137//102
f 130//102 132//102 138//102
f 140//97 136//97 141//97
f 134//103 130//103 129//103
f 142//98 133//98 144//98
f 140//99 145//99 143//99
f 132//99 130//99 145//99
f 146//98 144//98 129//98
f 139//98 146//98 137//98
f 135//98 142//98 146//98
f 134//100 129//100 144//100
f 143//101 134//101 133//101
f 141//101 143//101 142//101
f 147//97 141//97 135//97
f 138//97 147//97 139//97
f 132//97 140//97 147//97
f 130//102 138//102 131//102
f 129//102 130//102 137//102
o col-convex2_Cube.020
v -7.226286 1.000002 45.170509
v 0.773714 12.200002 37.170509
v -7.226286 1.000002 29.170509
v 8.773714 1.000002 45.170509
v 8.773714 1.000002 29.170509
vn -0.8137 0.5812 0.0000
vn 0.0000 0.5812 -0.8137
vn 0.8137 0.5812 0.0000
vn 0.0000 0.5812 0.8137
vn 0.0000 -1.0000 0.0000
s off
f 148//104 149//104 150//104
f 150//105 149//105 152//105
f 152//106 149//106 151//106
f 151//107 149//107 148//107
f 152//108 148//108 150//108
f 152//108 151//108 148//108
o col1.001_Cube.021
v -104.940453 -31.373167 82.455704
v -105.662468 -29.509428 82.527573
v -99.213081 -25.186947 -20.422152
v -99.935104 -23.323208 -20.350275
v -49.085846 -9.904613 86.856155
v -49.807861 -8.040874 86.928024
v -43.358475 -3.718394 -16.021698
v -44.080498 -1.854655 -15.949825
vn -0.9309 -0.3578 -0.0733
vn 0.0555 0.0599 -0.9967
vn 0.9309 0.3578 0.0733
vn -0.0555 -0.0599 0.9967
vn 0.3610 -0.9319 -0.0359
vn -0.3610 0.9319 0.0359
s off
f 154//109 155//109 153//109
f 156//110 159//110 155//110
f 160//111 157//111 159//111
f 158//112 153//112 157//112
f 159//113 153//113 155//113
f 156//114 158//114 160//114
f 154//109 156//109 155//109
f 156//110 160//110 159//110
f 160//111 158//111 157//111
f 158//112 154//112 153//112
f 159//113 157//113 153//113
f 156//114 154//114 158//114
o col1.002_Cube.022
v -161.613113 -31.945265 77.882645
v -161.613113 -29.945265 77.882645
v -155.994797 -31.945265 -25.187031
v -155.994797 -29.945265 -25.187031
v -101.702057 -31.945265 81.148392
v -101.702057 -29.945265 81.148392
v -96.083740 -31.945265 -21.921284
v -96.083740 -29.945265 -21.921284
vn -0.9985 0.0000 -0.0544
vn 0.0544 0.0000 -0.9985
vn 0.9985 0.0000 0.0544
vn -0.0544 0.0000 0.9985
vn 0.0000 -1.0000 -0.0000
vn 0.0000 1.0000 -0.0000
s off
f 162//115 163//115 161//115
f 164//116 167//116 163//116
f 168//117 165//117 167//117
f 166//118 161//118 165//118
f 167//119 161//119 163//119
f 164//120 166//120 168//120
f 162//115 164//115 163//115
f 164//116 168//116 167//116
f 168//117 166//117 165//117
f 166//118 162//118 161//118
f 167//119 165//119 161//119
f 164//120 162//120 166//120
o col-convex2.001_Cube.023
v -18.875315 -2.721605 64.691025
v -10.875315 8.478395 56.691021
v -18.875315 -2.721605 48.691021
v -2.875315 -2.721605 64.691025
v -2.875315 -2.721605 48.691021
vn -0.8137 0.5812 0.0000
vn 0.0000 0.5812 -0.8137
vn 0.8137 0.5812 0.0000
vn 0.0000 0.5812 0.8137
vn 0.0000 -1.0000 0.0000
s off
f 169//121 170//121 171//121
f 171//122 170//122 173//122
f 173//123 170//123 172//123
f 172//124 170//124 169//124
f 173//125 169//125 171//125
f 173//125 172//125 169//125
o colbridge_Cube.024
v -17.158892 6.909379 -89.264221
v 5.604147 11.637117 -95.221802
v -17.387577 8.085865 -89.204369
v 5.375462 12.813604 -95.161949
v -18.374218 6.909379 -93.907814
v 4.388819 11.637117 -99.865395
v -18.602903 8.085866 -93.847961
v 4.160133 12.813603 -99.805542
vn 0.2532 -0.0000 0.9674
vn -0.1906 0.9804 0.0499
vn -0.2532 0.0000 -0.9674
vn 0.1906 -0.9804 -0.0499
vn -0.9485 -0.1970 0.2482
vn 0.9485 0.1970 -0.2482
s off
f 175//126 176//126 174//126
f 177//127 180//127 176//127
f 181//128 178//128 180//128
f 179//129 174//129 178//129
f 180//130 174//130 176//130
f 177//131 179//131 181//131
f 175//126 177//126 176//126
f 177//127 181//127 180//127
f 181//128 179//128 178//128
f 179//129 175//129 174//129
f 180//130 178//130 174//130
f 177//131 175//131 179//131
o colpillar.005_Cube.025
v 7.188209 0.999999 -71.443390
v 7.188209 8.999999 -71.443390
v 1.370500 0.999999 -69.975655
v 1.370500 8.999999 -69.975655
v 5.720471 0.999999 -77.261101
v 5.720471 8.999999 -77.261101
v -0.097238 0.999999 -75.793365
v -0.097238 8.999999 -75.793365
vn 0.2446 0.0000 0.9696
vn -0.9696 0.0000 0.2446
vn -0.2446 0.0000 -0.9696
vn 0.9696 0.0000 -0.2446
vn 0.0000 -1.0000 0.0000
vn 0.0000 1.0000 0.0000
s off
f 183//132 184//132 182//132
f 185//133 188//133 184//133
f 189//134 186//134 188//134
f 187//135 182//135 186//135
f 188//136 182//136 184//136
f 185//137 187//137 189//137
f 183//132 185//132 184//132
f 185//133 189//133 188//133
f 189//134 187//134 186//134
f 187//135 183//135 182//135
f 188//136 186//136 182//136
f 185//137 183//137 187//137
o colbridge.001_Cube.026
v 5.808112 6.909379 -71.971619
v 7.898670 11.637117 -95.408302
v 5.787109 8.085865 -71.736168
v 7.877668 12.813604 -95.172852
v 1.027095 6.909379 -72.398087
v 3.117654 11.637117 -95.834770
v 1.006093 8.085866 -72.162636
v 3.096651 12.813603 -95.599319
vn 0.9960 0.0000 0.0888
vn -0.0175 0.9804 0.1962
vn -0.9960 -0.0000 -0.0888
vn 0.0175 -0.9804 -0.1962
vn -0.0871 -0.1970 0.9765
vn 0.0871 0.1970 -0.9765
s off
f 191//138 192//138 190//138
f 193//139 196//139 192//139
f 197//140 194//140 196//140
f 195//141 190//141 194//141
f 196//142 190//142 192//142
f 193//143 195//143 197//143
f 191//138 193//138 192//138
f 193//139 197//139 196//139
f 197//140 195//140 194//140
f 195//141 191//141 190//141
f 196//142 194//142 190//142
f 193//143 191//143 195//143
o col1b.002_Cube.027
v -141.601349 -73.000000 -40.486092
v -141.601349 -18.000000 -40.486092
v -141.601349 -73.000000 -100.486092
v -141.601349 -18.000000 -100.486092
v -81.601357 -73.000000 -40.486092
v -81.601357 -18.000000 -40.486092
v -81.601357 -73.000000 -100.486092
v -81.601357 -18.000000 -100.486092
vn -1.0000 0.0000 0.0000
vn 0.0000 0.0000 -1.0000
vn 1.0000 0.0000 0.0000
vn 0.0000 0.0000 1.0000
vn 0.0000 -1.0000 0.0000
vn 0.0000 1.0000 0.0000
s off
f 199//144 200//144 198//144
f 201//145 204//145 200//145
f 205//146 202//146 204//146
f 203//147 198//147 202//147
f 204//148 198//148 200//148
f 201//149 203//149 205//149
f 199//144 201//144 200//144
f 201//145 205//145 204//145
f 205//146 203//146 202//146
f 203//147 199//147 198//147
f 204//148 202//148 198//148
f 201//149 199//149 203//149
o col-convex2.002_Cube.028
v -81.886398 -32.114513 -50.175068
v -57.886395 8.589560 -57.113255
v -81.886398 -11.174911 -93.366882
v -33.886395 -32.114513 -50.175068
v -33.886395 -11.174911 -93.366882
vn -0.8137 0.5230 0.2536
vn 0.0000 0.8780 -0.4787
vn 0.8137 0.5230 0.2536
vn 0.0000 0.1680 0.9858
vn 0.0000 -0.8998 -0.4362
s off
f 206//150 207//150 208//150
f 208//151 207//151 210//151
f 210//152 207//152 209//152
f 209//153 207//153 206//153
f 210//154 206//154 208//154
f 210//154 209//154 206//154
o colpillar.014_Cube.029
v -92.205856 -23.518972 -78.492035
v -92.205856 -7.518972 -78.492035
v -91.636383 -23.518972 -86.471741
v -91.636383 -7.518972 -86.471741
v -84.226151 -23.518972 -77.922562
v -84.226151 -7.518972 -77.922562
v -83.656677 -23.518972 -85.902267
v -83.656677 -7.518972 -85.902267
vn -0.9975 0.0000 -0.0712
vn 0.0712 0.0000 -0.9975
vn 0.9975 0.0000 0.0712
vn -0.0712 0.0000 0.9975
vn 0.0000 -1.0000 0.0000
vn 0.0000 1.0000 0.0000
s off
f 212//155 213//155 211//155
f 214//156 217//156 213//156
f 218//157 215//157 217//157
f 216//158 211//158 215//158
f 217//159 211//159 213//159
f 214//160 216//160 218//160
f 212//155 214//155 213//155
f 214//156 218//156 217//156
f 218//157 216//157 215//157
f 216//158 212//158 211//158
f 217//159 215//159 211//159
f 214//160 212//160 216//160
o colpillar.015_Cube.030
v -75.060936 -23.518972 -89.844177
v -75.060936 -7.518972 -89.844177
v -74.491463 -23.518972 -97.823883
v -74.491463 -7.518972 -97.823883
v -67.081230 -23.518972 -89.274704
v -67.081230 -7.518972 -89.274704
v -66.511757 -23.518972 -97.254410
v -66.511757 -7.518972 -97.254410
vn -0.9975 0.0000 -0.0712
vn 0.0712 0.0000 -0.9975
vn 0.9975 0.0000 0.0712
vn -0.0712 0.0000 0.9975
vn 0.0000 -1.0000 0.0000
vn 0.0000 1.0000 0.0000
s off
f 220//161 221//161 219//161
f 222//162 225//162 221//162
f 226//163 223//163 225//163
f 224//164 219//164 223//164
f 225//165 219//165 221//165
f 222//166 224//166 226//166
f 220//161 222//161 221//161
f 222//162 226//162 225//162
f 226//163 224//163 223//163
f 224//164 220//164 219//164
f 225//165 223//165 219//165
f 222//166 220//166 224//166
o colpillar.016_Cube.031
v -53.688538 -18.350252 -91.066216
v -53.688538 -2.350252 -91.066216
v -53.119064 -18.350252 -99.045921
v -53.119064 -2.350252 -99.045921
v -45.708832 -18.350252 -90.496742
v -45.708832 -2.350252 -90.496742
v -45.139359 -18.350252 -98.476448
v -45.139359 -2.350252 -98.476448
vn -0.9975 0.0000 -0.0712
vn 0.0712 0.0000 -0.9975
vn 0.9975 0.0000 0.0712
vn -0.0712 0.0000 0.9975
vn 0.0000 -1.0000 -0.0000
vn 0.0000 1.0000 0.0000
s off
f 228//167 229//167 227//167
f 230//168 233//168 229//168
f 234//169 231//169 233//169
f 232//170 227//170 231//170
f 233//171 227//171 229//171
f 230//172 232//172 234//172
f 228//167 230//167 229//167
f 230//168 234//168 233//168
f 234//169 232//169 231//169
f 232//170 228//170 227//170
f 233//171 231//171 227//171
f 230//172 228//172 232//172
